<?xml version="1.0" encoding="UTF-8"?><svg xmlns="http://www.w3.org/2000/svg" xmlns:xlink="http://www.w3.org/1999/xlink" fill-opacity="1" color-rendering="auto" color-interpolation="auto" text-rendering="auto" stroke="black" stroke-linecap="square" width="1444" stroke-miterlimit="10" shape-rendering="auto" stroke-opacity="1" fill="black" stroke-dasharray="none" font-weight="normal" stroke-width="1" height="879" font-family="'Dialog'" font-style="normal" stroke-linejoin="miter" font-size="12px" stroke-dashoffset="0" image-rendering="auto">
  <!--Generated by ySVG 2.5-->
  <defs id="genericDefs"/>
  <g>
    <defs id="defs1">
      <clipPath clipPathUnits="userSpaceOnUse" id="clipPath1">
        <path d="M0 0 L1444 0 L1444 879 L0 879 L0 0 Z"/>
      </clipPath>
      <clipPath clipPathUnits="userSpaceOnUse" id="clipPath2">
        <path d="M-626 -11 L818 -11 L818 868 L-626 868 L-626 -11 Z"/>
      </clipPath>
    </defs>
    <g fill="white" text-rendering="geometricPrecision" shape-rendering="geometricPrecision" transform="translate(626,11)" stroke="white">
      <rect x="-626" width="1444" height="879" y="-11" clip-path="url(#clipPath2)" stroke="none"/>
    </g>
    <g fill="rgb(245,245,245)" text-rendering="geometricPrecision" shape-rendering="geometricPrecision" transform="matrix(1,0,0,1,626,11)" stroke="rgb(245,245,245)">
      <rect x="-324.625" y="54.4735" clip-path="url(#clipPath2)" width="602.25" rx="4" ry="4" height="643.8765" stroke="none"/>
      <rect x="-324.625" y="54.4735" clip-path="url(#clipPath2)" fill="rgb(235,235,235)" width="602.25" height="22.3765" stroke="none"/>
    </g>
    <g font-size="15px" stroke-linecap="butt" transform="matrix(1,0,0,1,626,11)" text-rendering="geometricPrecision" font-family="sans-serif" shape-rendering="geometricPrecision" stroke-miterlimit="1.45">
      <text x="223.103" xml:space="preserve" y="71.5541" clip-path="url(#clipPath2)" stroke="none">process</text>
      <rect x="-324.625" y="54.4735" clip-path="url(#clipPath2)" fill="none" width="602.25" stroke-dasharray="6,2" rx="4" ry="4" height="643.8765"/>
    </g>
    <g fill="rgb(255,204,0)" text-rendering="geometricPrecision" shape-rendering="geometricPrecision" transform="matrix(1,0,0,1,626,11)" stroke="rgb(255,204,0)">
      <rect x="92.675" width="136" height="136" y="327.35" clip-path="url(#clipPath2)" stroke="none"/>
    </g>
    <g text-rendering="geometricPrecision" stroke-miterlimit="1.45" shape-rendering="geometricPrecision" transform="matrix(1,0,0,1,626,11)" stroke-linecap="butt">
      <rect fill="none" x="92.675" width="136" height="136" y="327.35" clip-path="url(#clipPath2)"/>
      <text x="123.6701" xml:space="preserve" y="392.7133" clip-path="url(#clipPath2)" font-family="sans-serif" stroke="none">CCD Transfer</text>
      <text x="137.6623" xml:space="preserve" y="407.4145" clip-path="url(#clipPath2)" font-family="sans-serif" stroke="none">Function</text>
    </g>
    <g fill="rgb(255,204,0)" text-rendering="geometricPrecision" shape-rendering="geometricPrecision" transform="matrix(1,0,0,1,626,11)" stroke="rgb(255,204,0)">
      <rect x="-271.025" width="136" height="136" y="144.35" clip-path="url(#clipPath2)" stroke="none"/>
    </g>
    <g text-rendering="geometricPrecision" stroke-miterlimit="1.45" shape-rendering="geometricPrecision" transform="matrix(1,0,0,1,626,11)" stroke-linecap="butt">
      <rect fill="none" x="-271.025" width="136" height="136" y="144.35" clip-path="url(#clipPath2)"/>
      <text x="-233.0309" xml:space="preserve" y="195.0121" clip-path="url(#clipPath2)" font-family="sans-serif" stroke="none">CCD Noise</text>
      <text x="-230.0396" xml:space="preserve" y="209.7133" clip-path="url(#clipPath2)" font-family="sans-serif" stroke="none">Generator</text>
      <text x="-204.692" xml:space="preserve" y="224.4145" clip-path="url(#clipPath2)" font-family="sans-serif" stroke="none"> </text>
      <text x="-231.3785" xml:space="preserve" y="239.1156" clip-path="url(#clipPath2)" font-family="sans-serif" stroke="none">Shot noise</text>
    </g>
    <g fill="rgb(255,204,0)" text-rendering="geometricPrecision" shape-rendering="geometricPrecision" transform="matrix(1,0,0,1,626,11)" stroke="rgb(255,204,0)">
      <rect x="-197.025" width="136" height="136" y="327.35" clip-path="url(#clipPath2)" stroke="none"/>
    </g>
    <g text-rendering="geometricPrecision" stroke-miterlimit="1.45" shape-rendering="geometricPrecision" transform="matrix(1,0,0,1,626,11)" stroke-linecap="butt">
      <rect fill="none" x="-197.025" width="136" height="136" y="327.35" clip-path="url(#clipPath2)"/>
      <text x="-159.0309" xml:space="preserve" y="378.0121" clip-path="url(#clipPath2)" font-family="sans-serif" stroke="none">CCD Noise</text>
      <text x="-156.0396" xml:space="preserve" y="392.7133" clip-path="url(#clipPath2)" font-family="sans-serif" stroke="none">Generator</text>
      <text x="-130.692" xml:space="preserve" y="407.4145" clip-path="url(#clipPath2)" font-family="sans-serif" stroke="none"> </text>
      <text x="-173.3805" xml:space="preserve" y="422.1156" clip-path="url(#clipPath2)" font-family="sans-serif" stroke="none">Fix pattern noise</text>
    </g>
    <g fill="rgb(255,204,0)" text-rendering="geometricPrecision" shape-rendering="geometricPrecision" transform="matrix(1,0,0,1,626,11)" stroke="rgb(255,204,0)">
      <rect x="-136.025" width="136" height="136" y="523.35" clip-path="url(#clipPath2)" stroke="none"/>
    </g>
    <g text-rendering="geometricPrecision" stroke-miterlimit="1.45" shape-rendering="geometricPrecision" transform="matrix(1,0,0,1,626,11)" stroke-linecap="butt">
      <rect fill="none" x="-136.025" width="136" height="136" y="523.35" clip-path="url(#clipPath2)"/>
      <text x="-98.0309" xml:space="preserve" y="566.6615" clip-path="url(#clipPath2)" font-family="sans-serif" stroke="none">CCD Noise</text>
      <text x="-95.0396" xml:space="preserve" y="581.3627" clip-path="url(#clipPath2)" font-family="sans-serif" stroke="none">Generator</text>
      <text x="-69.692" xml:space="preserve" y="596.0638" clip-path="url(#clipPath2)" font-family="sans-serif" stroke="none"> </text>
      <text x="-69.692" xml:space="preserve" y="610.765" clip-path="url(#clipPath2)" font-family="sans-serif" stroke="none"> </text>
      <text x="-106.7203" xml:space="preserve" y="625.4662" clip-path="url(#clipPath2)" font-family="sans-serif" stroke="none">Readout noise</text>
    </g>
    <g fill="rgb(245,245,245)" text-rendering="geometricPrecision" shape-rendering="geometricPrecision" transform="matrix(1,0,0,1,626,11)" stroke="rgb(245,245,245)">
      <rect x="-610.375" y="60.936" clip-path="url(#clipPath2)" width="191.625" rx="4" ry="4" height="555.564" stroke="none"/>
      <rect x="-610.375" y="60.936" clip-path="url(#clipPath2)" fill="rgb(235,235,235)" width="191.625" height="22.3765" stroke="none"/>
    </g>
    <g font-size="15px" stroke-linecap="butt" transform="matrix(1,0,0,1,626,11)" text-rendering="geometricPrecision" font-family="sans-serif" shape-rendering="geometricPrecision" stroke-miterlimit="1.45">
      <text x="-471.6021" xml:space="preserve" y="78.0166" clip-path="url(#clipPath2)" stroke="none">Input(s)</text>
      <rect x="-610.375" y="60.936" clip-path="url(#clipPath2)" fill="none" width="191.625" stroke-dasharray="6,2" rx="4" ry="4" height="555.564"/>
    </g>
    <g fill="rgb(255,204,0)" text-rendering="geometricPrecision" shape-rendering="geometricPrecision" transform="matrix(1,0,0,1,626,11)" stroke="rgb(255,204,0)">
      <rect x="-595.375" width="136" height="136" y="98.3125" clip-path="url(#clipPath2)" stroke="none"/>
    </g>
    <g text-rendering="geometricPrecision" stroke-miterlimit="1.45" shape-rendering="geometricPrecision" transform="matrix(1,0,0,1,626,11)" stroke-linecap="butt">
      <rect fill="none" x="-595.375" width="136" height="136" y="98.3125" clip-path="url(#clipPath2)"/>
      <text x="-558.0518" xml:space="preserve" y="171.0264" clip-path="url(#clipPath2)" font-family="sans-serif" stroke="none">FITS object</text>
    </g>
    <g fill="rgb(255,204,0)" text-rendering="geometricPrecision" shape-rendering="geometricPrecision" transform="matrix(1,0,0,1,626,11)" stroke="rgb(255,204,0)">
      <rect x="-595.375" width="136" height="136" y="278.625" clip-path="url(#clipPath2)" stroke="none"/>
    </g>
    <g text-rendering="geometricPrecision" stroke-miterlimit="1.45" shape-rendering="geometricPrecision" transform="matrix(1,0,0,1,626,11)" stroke-linecap="butt">
      <rect fill="none" x="-595.375" width="136" height="136" y="278.625" clip-path="url(#clipPath2)"/>
      <text x="-572.3867" xml:space="preserve" y="351.3389" clip-path="url(#clipPath2)" font-family="sans-serif" stroke="none">CCD parameters</text>
    </g>
    <g fill="rgb(255,204,0)" text-rendering="geometricPrecision" shape-rendering="geometricPrecision" transform="matrix(1,0,0,1,626,11)" stroke="rgb(255,204,0)">
      <rect x="-595.375" width="136" height="136" y="465.5" clip-path="url(#clipPath2)" stroke="none"/>
    </g>
    <g text-rendering="geometricPrecision" stroke-miterlimit="1.45" shape-rendering="geometricPrecision" transform="matrix(1,0,0,1,626,11)" stroke-linecap="butt">
      <rect fill="none" x="-595.375" width="136" height="136" y="465.5" clip-path="url(#clipPath2)"/>
      <text x="-575.7295" xml:space="preserve" y="538.2139" clip-path="url(#clipPath2)" font-family="sans-serif" stroke="none">Model parameters</text>
      <path fill="none" d="M-459.3777 194.6651 L-332.013 247.772" clip-path="url(#clipPath2)"/>
      <path d="M-324.6292 250.8508 L-333.7806 241.6177 L-332.9359 247.3872 L-337.6292 250.8475 Z" clip-path="url(#clipPath2)" stroke="none"/>
      <path fill="none" d="M-459.3777 350.6447 L-332.6152 358.1383" clip-path="url(#clipPath2)"/>
      <path d="M-324.6292 358.6104 L-336.3132 352.911 L-333.6135 358.0793 L-336.9033 362.8935 Z" clip-path="url(#clipPath2)" stroke="none"/>
      <path fill="none" d="M-459.375 512.3003 L-332.2647 472.6724" clip-path="url(#clipPath2)"/>
      <path d="M-324.6273 470.2913 L-337.5716 469.0895 L-333.2194 472.97 L-334.5952 478.6363 Z" clip-path="url(#clipPath2)" stroke="none"/>
    </g>
    <g fill="rgb(245,245,245)" text-rendering="geometricPrecision" shape-rendering="geometricPrecision" transform="matrix(1,0,0,1,626,11)" stroke="rgb(245,245,245)">
      <rect x="367.375" y="4.1147" clip-path="url(#clipPath2)" width="196" rx="4" ry="4" height="848.4706" stroke="none"/>
      <rect x="367.375" y="4.1147" clip-path="url(#clipPath2)" fill="rgb(235,235,235)" width="196" height="22.3765" stroke="none"/>
    </g>
    <g font-size="15px" stroke-linecap="butt" transform="matrix(1,0,0,1,626,11)" text-rendering="geometricPrecision" font-family="sans-serif" shape-rendering="geometricPrecision" stroke-miterlimit="1.45">
      <text x="498.8555" xml:space="preserve" y="21.1953" clip-path="url(#clipPath2)" stroke="none">Output(s)</text>
      <rect x="367.375" y="4.1147" clip-path="url(#clipPath2)" fill="none" width="196" stroke-dasharray="6,2" rx="4" ry="4" height="848.4706"/>
    </g>
    <g fill="rgb(225,225,225)" text-rendering="geometricPrecision" shape-rendering="geometricPrecision" transform="matrix(1,0,0,1,626,11)" stroke="rgb(225,225,225)">
      <rect x="382.375" y="310.7176" clip-path="url(#clipPath2)" width="166" rx="4" ry="4" height="526.8677" stroke="none"/>
      <rect x="382.375" y="310.7176" clip-path="url(#clipPath2)" fill="rgb(235,235,235)" width="166" height="22.3765" stroke="none"/>
    </g>
    <g font-size="15px" stroke-linecap="butt" transform="matrix(1,0,0,1,626,11)" text-rendering="geometricPrecision" font-family="sans-serif" shape-rendering="geometricPrecision" stroke-miterlimit="1.45">
      <text x="471.3091" xml:space="preserve" y="327.7982" clip-path="url(#clipPath2)" stroke="none">output.data</text>
      <rect x="382.375" y="310.7176" clip-path="url(#clipPath2)" fill="none" width="166" stroke-dasharray="6,2" rx="4" ry="4" height="526.8677"/>
    </g>
    <g fill="rgb(255,204,0)" text-rendering="geometricPrecision" shape-rendering="geometricPrecision" transform="matrix(1,0,0,1,626,11)" stroke="rgb(255,204,0)">
      <rect x="397.375" width="136" height="136" y="348.0941" clip-path="url(#clipPath2)" stroke="none"/>
    </g>
    <g text-rendering="geometricPrecision" stroke-miterlimit="1.45" shape-rendering="geometricPrecision" transform="matrix(1,0,0,1,626,11)" stroke-linecap="butt">
      <rect fill="none" x="397.375" width="136" height="136" y="348.0941" clip-path="url(#clipPath2)"/>
      <text x="433.0225" xml:space="preserve" y="420.808" clip-path="url(#clipPath2)" font-family="sans-serif" stroke="none">signal mean</text>
    </g>
    <g fill="rgb(255,204,0)" text-rendering="geometricPrecision" shape-rendering="geometricPrecision" transform="matrix(1,0,0,1,626,11)" stroke="rgb(255,204,0)">
      <rect x="397.375" width="136" height="136" y="506.0912" clip-path="url(#clipPath2)" stroke="none"/>
    </g>
    <g text-rendering="geometricPrecision" stroke-miterlimit="1.45" shape-rendering="geometricPrecision" transform="matrix(1,0,0,1,626,11)" stroke-linecap="butt">
      <rect fill="none" x="397.375" width="136" height="136" y="506.0912" clip-path="url(#clipPath2)"/>
      <text x="432.0264" xml:space="preserve" y="578.8051" clip-path="url(#clipPath2)" font-family="sans-serif" stroke="none">signal sigma</text>
    </g>
    <g fill="rgb(255,204,0)" text-rendering="geometricPrecision" shape-rendering="geometricPrecision" transform="matrix(1,0,0,1,626,11)" stroke="rgb(255,204,0)">
      <rect x="397.375" width="136" height="136" y="686.5853" clip-path="url(#clipPath2)" stroke="none"/>
    </g>
    <g text-rendering="geometricPrecision" stroke-miterlimit="1.45" shape-rendering="geometricPrecision" transform="matrix(1,0,0,1,626,11)" stroke-linecap="butt">
      <rect fill="none" x="397.375" width="136" height="136" y="686.5853" clip-path="url(#clipPath2)"/>
      <text x="444.0234" xml:space="preserve" y="759.2992" clip-path="url(#clipPath2)" font-family="sans-serif" stroke="none">photons</text>
      <path fill="none" d="M228.7043 435.2704 L375.4729 521.3959" clip-path="url(#clipPath2)"/>
      <path d="M382.3727 525.4448 L374.5536 515.0591 L374.6104 520.8898 L369.4925 523.6838 Z" clip-path="url(#clipPath2)" stroke="none"/>
    </g>
    <g fill="rgb(225,225,225)" text-rendering="geometricPrecision" shape-rendering="geometricPrecision" transform="matrix(1,0,0,1,626,11)" stroke="rgb(225,225,225)">
      <rect x="382.375" y="41.4912" clip-path="url(#clipPath2)" width="166" rx="4" ry="4" height="188.3765" stroke="none"/>
      <rect x="382.375" y="41.4912" clip-path="url(#clipPath2)" fill="rgb(235,235,235)" width="166" height="22.3765" stroke="none"/>
    </g>
    <g font-size="15px" stroke-linecap="butt" transform="matrix(1,0,0,1,626,11)" text-rendering="geometricPrecision" font-family="sans-serif" shape-rendering="geometricPrecision" stroke-miterlimit="1.45">
      <text x="498.8628" xml:space="preserve" y="58.5717" clip-path="url(#clipPath2)" stroke="none">test.fits</text>
      <rect x="382.375" y="41.4912" clip-path="url(#clipPath2)" fill="none" width="166" stroke-dasharray="6,2" rx="4" ry="4" height="188.3765"/>
    </g>
    <g fill="rgb(255,204,0)" text-rendering="geometricPrecision" shape-rendering="geometricPrecision" transform="matrix(1,0,0,1,626,11)" stroke="rgb(255,204,0)">
      <rect x="397.375" width="136" height="136" y="78.8676" clip-path="url(#clipPath2)" stroke="none"/>
    </g>
    <g text-rendering="geometricPrecision" stroke-miterlimit="1.45" shape-rendering="geometricPrecision" transform="matrix(1,0,0,1,626,11)" stroke-linecap="butt">
      <rect fill="none" x="397.375" width="136" height="136" y="78.8676" clip-path="url(#clipPath2)"/>
      <text x="434.6982" xml:space="preserve" y="151.5815" clip-path="url(#clipPath2)" font-family="sans-serif" stroke="none">FITS object</text>
    </g>
    <g fill="rgb(255,204,0)" text-rendering="geometricPrecision" shape-rendering="geometricPrecision" transform="matrix(1,0,0,1,626,11)" stroke="rgb(255,204,0)">
      <rect x="666.125" width="136" height="136" y="540.0912" clip-path="url(#clipPath2)" stroke="none"/>
    </g>
    <g text-rendering="geometricPrecision" stroke-miterlimit="1.45" shape-rendering="geometricPrecision" transform="matrix(1,0,0,1,626,11)" stroke-linecap="butt">
      <rect fill="none" x="666.125" width="136" height="136" y="540.0912" clip-path="url(#clipPath2)"/>
      <text x="723.7861" xml:space="preserve" y="612.8051" clip-path="url(#clipPath2)" font-family="sans-serif" stroke="none">Plot</text>
      <path fill="none" d="M228.7043 339.8722 L391.1752 207.3775" clip-path="url(#clipPath2)"/>
      <path d="M397.375 202.3215 L384.9153 206.0305 L390.4002 208.0094 L391.2353 213.7803 Z" clip-path="url(#clipPath2)" stroke="none"/>
      <path fill="none" d="M548.3424 584.6292 L658.188 598.5013" clip-path="url(#clipPath2)"/>
      <path d="M666.125 599.5036 L654.846 593.0395 L657.1959 598.376 L653.5931 602.9607 Z" clip-path="url(#clipPath2)" stroke="none"/>
    </g>
  </g>
</svg>
