<?xml version="1.0" encoding="UTF-8"?><svg xmlns="http://www.w3.org/2000/svg" xmlns:xlink="http://www.w3.org/1999/xlink" fill-opacity="1" color-rendering="auto" color-interpolation="auto" text-rendering="auto" stroke="black" stroke-linecap="square" width="1362" stroke-miterlimit="10" shape-rendering="auto" stroke-opacity="1" fill="black" stroke-dasharray="none" font-weight="normal" stroke-width="1" height="842" font-family="'Dialog'" font-style="normal" stroke-linejoin="miter" font-size="12px" stroke-dashoffset="0" image-rendering="auto">
  <!--Generated by ySVG 2.5-->
  <defs id="genericDefs"/>
  <g>
    <defs id="defs1">
      <clipPath clipPathUnits="userSpaceOnUse" id="clipPath1">
        <path d="M0 0 L1362 0 L1362 842 L0 842 L0 0 Z"/>
      </clipPath>
      <clipPath clipPathUnits="userSpaceOnUse" id="clipPath2">
        <path d="M-680 2 L682 2 L682 844 L-680 844 L-680 2 Z"/>
      </clipPath>
      <clipPath clipPathUnits="userSpaceOnUse" id="clipPath3">
        <path d="M250.5268 -865.0244 L250.5268 496.9756 L-591.4733 496.9756 L-591.4733 -865.0244 L250.5268 -865.0244 Z"/>
      </clipPath>
    </defs>
    <g fill="white" text-rendering="geometricPrecision" shape-rendering="geometricPrecision" transform="translate(680,-2)" stroke="white">
      <rect x="-680" width="1362" height="842" y="2" clip-path="url(#clipPath2)" stroke="none"/>
    </g>
    <g fill="rgb(245,245,245)" text-rendering="geometricPrecision" shape-rendering="geometricPrecision" transform="matrix(1,0,0,1,680,-2)" stroke="rgb(245,245,245)">
      <rect x="-339.625" y="56.4706" clip-path="url(#clipPath2)" width="440.25" rx="4" ry="4" height="642.8794" stroke="none"/>
      <rect x="-339.625" y="56.4706" clip-path="url(#clipPath2)" fill="rgb(235,235,235)" width="440.25" height="22.3765" stroke="none"/>
    </g>
    <g font-size="15px" stroke-linecap="butt" transform="matrix(1,0,0,1,680,-2)" text-rendering="geometricPrecision" font-family="sans-serif" shape-rendering="geometricPrecision" stroke-miterlimit="1.45">
      <text x="-52.2393" xml:space="preserve" y="73.5512" clip-path="url(#clipPath2)" stroke="none">CCD Transfer Process</text>
      <rect x="-339.625" y="56.4706" clip-path="url(#clipPath2)" fill="none" width="440.25" stroke-dasharray="6,2" rx="4" ry="4" height="642.8794"/>
    </g>
    <g fill="silver" text-rendering="geometricPrecision" shape-rendering="geometricPrecision" transform="matrix(1,0,0,1,680,-2)" stroke="silver">
      <rect x="-61.325" width="136" height="136" y="307.5" clip-path="url(#clipPath2)" stroke="none"/>
    </g>
    <g text-rendering="geometricPrecision" stroke-miterlimit="1.45" shape-rendering="geometricPrecision" transform="matrix(1,0,0,1,680,-2)" stroke-linecap="butt">
      <rect fill="none" x="-61.325" width="136" height="136" y="307.5" clip-path="url(#clipPath2)"/>
      <text x="-30.3299" xml:space="preserve" y="372.8633" clip-path="url(#clipPath2)" font-family="sans-serif" stroke="none">CCD Transfer</text>
      <text x="-16.3377" xml:space="preserve" y="387.5645" clip-path="url(#clipPath2)" font-family="sans-serif" stroke="none">Function</text>
    </g>
    <g fill="rgb(225,225,225)" text-rendering="geometricPrecision" shape-rendering="geometricPrecision" transform="matrix(1,0,0,1,680,-2)" stroke="rgb(225,225,225)">
      <rect x="-319.025" y="106.9735" clip-path="url(#clipPath2)" width="166" rx="4" ry="4" height="554.3765" stroke="none"/>
      <rect x="-319.025" y="106.9735" clip-path="url(#clipPath2)" fill="rgb(235,235,235)" width="166" height="22.3765" stroke="none"/>
    </g>
    <g font-size="15px" stroke-linecap="butt" transform="matrix(1,0,0,1,680,-2)" text-rendering="geometricPrecision" font-family="sans-serif" shape-rendering="geometricPrecision" stroke-miterlimit="1.45">
      <text x="-193.3746" xml:space="preserve" y="124.0541" clip-path="url(#clipPath2)" stroke="none">Noise</text>
      <rect x="-319.025" y="106.9735" clip-path="url(#clipPath2)" fill="none" width="166" stroke-dasharray="6,2" rx="4" ry="4" height="554.3765"/>
    </g>
    <g fill="rgb(255,204,0)" text-rendering="geometricPrecision" shape-rendering="geometricPrecision" transform="matrix(1,0,0,1,680,-2)" stroke="rgb(255,204,0)">
      <rect x="-304.025" width="136" height="136" y="144.35" clip-path="url(#clipPath2)" stroke="none"/>
    </g>
    <g text-rendering="geometricPrecision" stroke-miterlimit="1.45" shape-rendering="geometricPrecision" transform="matrix(1,0,0,1,680,-2)" stroke-linecap="butt">
      <rect fill="none" x="-304.025" width="136" height="136" y="144.35" clip-path="url(#clipPath2)"/>
      <text x="-266.0309" xml:space="preserve" y="195.0121" clip-path="url(#clipPath2)" font-family="sans-serif" stroke="none">CCD Noise</text>
      <text x="-263.0396" xml:space="preserve" y="209.7133" clip-path="url(#clipPath2)" font-family="sans-serif" stroke="none">Generator</text>
      <text x="-237.692" xml:space="preserve" y="224.4145" clip-path="url(#clipPath2)" font-family="sans-serif" stroke="none"> </text>
      <text x="-264.3785" xml:space="preserve" y="239.1156" clip-path="url(#clipPath2)" font-family="sans-serif" stroke="none">Shot noise</text>
    </g>
    <g fill="rgb(255,204,0)" text-rendering="geometricPrecision" shape-rendering="geometricPrecision" transform="matrix(1,0,0,1,680,-2)" stroke="rgb(255,204,0)">
      <rect x="-304.025" width="136" height="136" y="327.35" clip-path="url(#clipPath2)" stroke="none"/>
    </g>
    <g text-rendering="geometricPrecision" stroke-miterlimit="1.45" shape-rendering="geometricPrecision" transform="matrix(1,0,0,1,680,-2)" stroke-linecap="butt">
      <rect fill="none" x="-304.025" width="136" height="136" y="327.35" clip-path="url(#clipPath2)"/>
      <text x="-266.0309" xml:space="preserve" y="378.0121" clip-path="url(#clipPath2)" font-family="sans-serif" stroke="none">CCD Noise</text>
      <text x="-263.0396" xml:space="preserve" y="392.7133" clip-path="url(#clipPath2)" font-family="sans-serif" stroke="none">Generator</text>
      <text x="-237.692" xml:space="preserve" y="407.4145" clip-path="url(#clipPath2)" font-family="sans-serif" stroke="none"> </text>
      <text x="-280.3805" xml:space="preserve" y="422.1156" clip-path="url(#clipPath2)" font-family="sans-serif" stroke="none">Fix pattern noise</text>
    </g>
    <g fill="rgb(255,204,0)" text-rendering="geometricPrecision" shape-rendering="geometricPrecision" transform="matrix(1,0,0,1,680,-2)" stroke="rgb(255,204,0)">
      <rect x="-304.025" width="136" height="136" y="510.35" clip-path="url(#clipPath2)" stroke="none"/>
    </g>
    <g text-rendering="geometricPrecision" stroke-miterlimit="1.45" shape-rendering="geometricPrecision" transform="matrix(1,0,0,1,680,-2)" stroke-linecap="butt">
      <rect fill="none" x="-304.025" width="136" height="136" y="510.35" clip-path="url(#clipPath2)"/>
      <text x="-266.0309" xml:space="preserve" y="553.6615" clip-path="url(#clipPath2)" font-family="sans-serif" stroke="none">CCD Noise</text>
      <text x="-263.0396" xml:space="preserve" y="568.3627" clip-path="url(#clipPath2)" font-family="sans-serif" stroke="none">Generator</text>
      <text x="-237.692" xml:space="preserve" y="583.0638" clip-path="url(#clipPath2)" font-family="sans-serif" stroke="none"> </text>
      <text x="-237.692" xml:space="preserve" y="597.765" clip-path="url(#clipPath2)" font-family="sans-serif" stroke="none"> </text>
      <text x="-274.7203" xml:space="preserve" y="612.4662" clip-path="url(#clipPath2)" font-family="sans-serif" stroke="none">Readout noise</text>
      <path fill="none" stroke-dasharray="6,2" d="M-48.741 307.5 L-94.5 251.35 L-160.3125 233.2141" clip-path="url(#clipPath2)"/>
      <path stroke-dasharray="6,2" d="M-168.025 231.0887 L-157.7846 239.0971 L-159.3484 233.4798 L-155.1279 229.4564 Z" clip-path="url(#clipPath2)" stroke="none"/>
      <path fill="none" stroke-dasharray="6,2" d="M-168.025 258.0616 L-67.9643 325.3253" clip-path="url(#clipPath2)"/>
      <path stroke-dasharray="6,2" d="M-61.325 329.7884 L-68.4945 318.9442 L-68.7942 324.7674 L-74.0734 327.2433 Z" clip-path="url(#clipPath2)" stroke="none"/>
      <path fill="none" stroke-dasharray="6,2" d="M-61.299 375.5 L-148 375.5 L-160.221 378.2559" clip-path="url(#clipPath2)"/>
      <path stroke-dasharray="6,2" d="M-168.025 380.0157 L-155.219 382.2535 L-159.2455 378.0359 L-157.4188 372.4984 Z" clip-path="url(#clipPath2)" stroke="none"/>
      <path fill="none" stroke-dasharray="6,2" d="M-168.025 395.35 L-78 395.35 L-69.3008 395.35" clip-path="url(#clipPath2)"/>
      <path stroke-dasharray="6,2" d="M-61.3008 395.35 L-73.3008 390.35 L-70.3008 395.35 L-73.3008 400.35 Z" clip-path="url(#clipPath2)" stroke="none"/>
      <path fill="none" stroke-dasharray="6,2" d="M-61.325 435.5528 L-97.5 467.5 L-161.7787 518.9369" clip-path="url(#clipPath2)"/>
      <path stroke-dasharray="6,2" d="M-168.025 523.9353 L-155.5316 520.3416 L-160.9979 518.3121 L-161.7796 512.5338 Z" clip-path="url(#clipPath2)" stroke="none"/>
      <path fill="none" stroke-dasharray="6,2" d="M-168.025 541.9532 L-77.5 493.5 L-46.4785 450.0128" clip-path="url(#clipPath2)"/>
      <path stroke-dasharray="6,2" d="M-41.8326 443.5 L-52.8719 450.3655 L-47.0592 450.8268 L-44.7309 456.1728 Z" clip-path="url(#clipPath2)" stroke="none"/>
    </g>
    <g fill="rgb(245,245,245)" text-rendering="geometricPrecision" shape-rendering="geometricPrecision" transform="matrix(1,0,0,1,680,-2)" stroke="rgb(245,245,245)">
      <rect x="-664.725" y="56.4706" clip-path="url(#clipPath2)" width="213.625" rx="4" ry="4" height="582.4404" stroke="none"/>
      <rect x="-664.725" y="56.4706" clip-path="url(#clipPath2)" fill="rgb(235,235,235)" width="213.625" height="22.3765" stroke="none"/>
    </g>
    <g font-size="15px" stroke-linecap="butt" transform="matrix(1,0,0,1,680,-2)" text-rendering="geometricPrecision" font-family="sans-serif" shape-rendering="geometricPrecision" stroke-miterlimit="1.45">
      <text x="-590.6415" xml:space="preserve" y="73.5512" clip-path="url(#clipPath2)" stroke="none">CCD Transfer Inputs</text>
      <rect x="-664.725" y="56.4706" clip-path="url(#clipPath2)" fill="none" width="213.625" stroke-dasharray="6,2" rx="4" ry="4" height="582.4404"/>
    </g>
    <g fill="rgb(255,153,0)" text-rendering="geometricPrecision" shape-rendering="geometricPrecision" transform="matrix(1,0,0,1,680,-2)" stroke="rgb(255,153,0)">
      <rect x="-634.725" width="136" height="136" y="297.2235" clip-path="url(#clipPath2)" stroke="none"/>
    </g>
    <g text-rendering="geometricPrecision" stroke-miterlimit="1.45" shape-rendering="geometricPrecision" transform="matrix(1,0,0,1,680,-2)" stroke-linecap="butt">
      <rect fill="none" x="-634.725" width="136" height="136" y="297.2235" clip-path="url(#clipPath2)"/>
      <text x="-611.7367" xml:space="preserve" y="369.9374" clip-path="url(#clipPath2)" font-family="sans-serif" stroke="none">CCD parameters</text>
    </g>
    <g fill="rgb(255,153,0)" text-rendering="geometricPrecision" shape-rendering="geometricPrecision" transform="matrix(1,0,0,1,680,-2)" stroke="rgb(255,153,0)">
      <rect x="-634.725" width="136" height="136" y="463.2235" clip-path="url(#clipPath2)" stroke="none"/>
    </g>
    <g text-rendering="geometricPrecision" stroke-miterlimit="1.45" shape-rendering="geometricPrecision" transform="matrix(1,0,0,1,680,-2)" stroke-linecap="butt">
      <rect fill="none" x="-634.725" width="136" height="136" y="463.2235" clip-path="url(#clipPath2)"/>
      <text x="-615.0795" xml:space="preserve" y="535.9374" clip-path="url(#clipPath2)" font-family="sans-serif" stroke="none">Model parameters</text>
    </g>
    <g fill="rgb(255,153,0)" text-rendering="geometricPrecision" shape-rendering="geometricPrecision" transform="matrix(1,0,0,1,680,-2)" stroke="rgb(255,153,0)">
      <rect x="-634.725" width="136" height="136" y="131.2235" clip-path="url(#clipPath2)" stroke="none"/>
    </g>
    <g text-rendering="geometricPrecision" stroke-miterlimit="1.45" shape-rendering="geometricPrecision" transform="matrix(1,0,0,1,680,-2)" stroke-linecap="butt">
      <rect fill="none" x="-634.725" width="136" height="136" y="131.2235" clip-path="url(#clipPath2)"/>
      <text x="-597.4017" xml:space="preserve" y="189.2362" clip-path="url(#clipPath2)" font-family="sans-serif" stroke="none">FITS object</text>
      <text x="-572.0599" xml:space="preserve" y="203.9374" clip-path="url(#clipPath2)" font-family="sans-serif" stroke="none">or</text>
      <text x="-588.0765" xml:space="preserve" y="218.6386" clip-path="url(#clipPath2)" font-family="sans-serif" stroke="none">photons</text>
    </g>
    <g fill="rgb(153,204,0)" text-rendering="geometricPrecision" shape-rendering="geometricPrecision" transform="matrix(1,0,0,1,680,-2)" stroke="rgb(153,204,0)">
      <rect x="530.75" width="136" height="136" y="478.8037" clip-path="url(#clipPath2)" stroke="none"/>
    </g>
    <g text-rendering="geometricPrecision" stroke-miterlimit="1.45" shape-rendering="geometricPrecision" transform="matrix(1,0,0,1,680,-2)" stroke-linecap="butt">
      <rect fill="none" x="530.75" width="136" height="136" y="478.8037" clip-path="url(#clipPath2)"/>
      <text x="588.4111" xml:space="preserve" y="551.5176" clip-path="url(#clipPath2)" font-family="sans-serif" stroke="none">Plot</text>
    </g>
    <g fill="rgb(153,204,0)" text-rendering="geometricPrecision" shape-rendering="geometricPrecision" transform="matrix(1,0,0,1,680,-2)" stroke="rgb(153,204,0)">
      <rect x="182.375" width="24" height="181" y="144.35" clip-path="url(#clipPath2)" stroke="none"/>
    </g>
    <g text-rendering="geometricPrecision" stroke-miterlimit="1.45" shape-rendering="geometricPrecision" transform="matrix(1,0,0,1,680,-2)" stroke-linecap="butt">
      <rect fill="none" x="182.375" width="24" height="181" y="144.35" clip-path="url(#clipPath2)"/>
    </g>
    <g text-rendering="geometricPrecision" stroke-miterlimit="1.45" shape-rendering="geometricPrecision" font-family="sans-serif" transform="matrix(-0,-1,1,-0,865.0244,250.5268)" stroke-linecap="butt">
      <text x="2" xml:space="preserve" y="14.0645" clip-path="url(#clipPath3)" stroke="none">signal</text>
    </g>
    <g fill="rgb(153,204,0)" text-rendering="geometricPrecision" shape-rendering="geometricPrecision" transform="matrix(1,0,0,1,680,-2)" stroke="rgb(153,204,0)">
      <rect x="312.25" width="136" height="136" y="17.8676" clip-path="url(#clipPath2)" stroke="none"/>
    </g>
    <g text-rendering="geometricPrecision" stroke-miterlimit="1.45" shape-rendering="geometricPrecision" transform="matrix(1,0,0,1,680,-2)" stroke-linecap="butt">
      <rect fill="none" x="312.25" width="136" height="136" y="17.8676" clip-path="url(#clipPath2)"/>
      <text x="349.5732" xml:space="preserve" y="90.5815" clip-path="url(#clipPath2)" font-family="sans-serif" stroke="none">FITS object</text>
      <path fill="none" d="M-498.725 367.1526 L-353.3635 371.2761" stroke-width="3" clip-path="url(#clipPath2)"/>
      <path d="M-339.619 371.666 L-354.4003 363.7437 L-354.8256 378.7377 Z" stroke-width="3" clip-path="url(#clipPath2)" stroke="none"/>
      <text x="-428.5119" xml:space="preserve" y="404.1351" clip-path="url(#clipPath2)" font-family="sans-serif" stroke="none">dict</text>
      <path fill="none" d="M-498.725 507.9124 L-352.6259 457.8282" stroke-width="3" clip-path="url(#clipPath2)"/>
      <path d="M-339.619 453.3693 L-356.2405 451.1389 L-351.3763 465.3283 Z" stroke-width="3" clip-path="url(#clipPath2)" stroke="none"/>
      <text x="-428.5119" xml:space="preserve" y="517.0696" clip-path="url(#clipPath2)" font-family="sans-serif" stroke="none">dict</text>
      <path fill="none" d="M-498.725 226.3926 L-352.3875 284.8611" stroke-width="3" clip-path="url(#clipPath2)"/>
      <path d="M-339.619 289.9627 L-350.7656 277.4326 L-356.331 291.362 Z" stroke-width="3" clip-path="url(#clipPath2)" stroke="none"/>
      <text x="-419.4991" xml:space="preserve" y="304.2591" clip-path="url(#clipPath2)" font-family="sans-serif" stroke="none">2D array</text>
      <path fill="none" d="M74.675 324.5453 L171.3715 252.0873" stroke-width="3" clip-path="url(#clipPath2)"/>
      <path d="M182.375 243.842 L165.8737 246.835 L174.8686 258.8388 Z" stroke-width="3" clip-path="url(#clipPath2)" stroke="none"/>
      <text x="105.5182" xml:space="preserve" y="326.3955" clip-path="url(#clipPath2)" font-family="sans-serif" stroke="none">2D array</text>
      <path fill="none" d="M206.375 225.2318 L301.521 148.9704" stroke-width="3" clip-path="url(#clipPath2)"/>
      <path d="M312.25 140.3709 L295.855 143.9 L305.2363 155.6044 Z" stroke-width="3" clip-path="url(#clipPath2)" stroke="none"/>
    </g>
    <g fill="rgb(245,245,245)" text-rendering="geometricPrecision" shape-rendering="geometricPrecision" transform="matrix(1,0,0,1,680,-2)" stroke="rgb(245,245,245)">
      <rect x="297.25" y="265.4647" clip-path="url(#clipPath2)" width="170.125" rx="4" ry="4" height="562.678" stroke="none"/>
      <rect x="297.25" y="265.4647" clip-path="url(#clipPath2)" fill="rgb(235,235,235)" width="170.125" height="22.3765" stroke="none"/>
    </g>
    <g font-size="15px" stroke-linecap="butt" transform="matrix(1,0,0,1,680,-2)" text-rendering="geometricPrecision" font-family="sans-serif" shape-rendering="geometricPrecision" stroke-miterlimit="1.45">
      <text x="390.3091" xml:space="preserve" y="282.5453" clip-path="url(#clipPath2)" stroke="none">output.data</text>
      <rect x="297.25" y="265.4647" clip-path="url(#clipPath2)" fill="none" width="170.125" stroke-dasharray="6,2" rx="4" ry="4" height="562.678"/>
    </g>
    <g fill="rgb(153,204,0)" text-rendering="geometricPrecision" shape-rendering="geometricPrecision" transform="matrix(1,0,0,1,680,-2)" stroke="rgb(153,204,0)">
      <rect x="316.375" width="136" height="136" y="677.1427" clip-path="url(#clipPath2)" stroke="none"/>
    </g>
    <g text-rendering="geometricPrecision" stroke-miterlimit="1.45" shape-rendering="geometricPrecision" transform="matrix(1,0,0,1,680,-2)" stroke-linecap="butt">
      <rect fill="none" x="316.375" width="136" height="136" y="677.1427" clip-path="url(#clipPath2)"/>
      <text x="363.0234" xml:space="preserve" y="749.8566" clip-path="url(#clipPath2)" font-family="sans-serif" stroke="none">photons</text>
    </g>
    <g fill="rgb(153,204,0)" text-rendering="geometricPrecision" shape-rendering="geometricPrecision" transform="matrix(1,0,0,1,680,-2)" stroke="rgb(153,204,0)">
      <rect x="312.25" width="136" height="136" y="302.8412" clip-path="url(#clipPath2)" stroke="none"/>
    </g>
    <g text-rendering="geometricPrecision" stroke-miterlimit="1.45" shape-rendering="geometricPrecision" transform="matrix(1,0,0,1,680,-2)" stroke-linecap="butt">
      <rect fill="none" x="312.25" width="136" height="136" y="302.8412" clip-path="url(#clipPath2)"/>
      <text x="347.8975" xml:space="preserve" y="375.5551" clip-path="url(#clipPath2)" font-family="sans-serif" stroke="none">signal mean</text>
    </g>
    <g fill="rgb(153,204,0)" text-rendering="geometricPrecision" shape-rendering="geometricPrecision" transform="matrix(1,0,0,1,680,-2)" stroke="rgb(153,204,0)">
      <rect x="312.25" width="136" height="136" y="468.8412" clip-path="url(#clipPath2)" stroke="none"/>
    </g>
    <g text-rendering="geometricPrecision" stroke-miterlimit="1.45" shape-rendering="geometricPrecision" transform="matrix(1,0,0,1,680,-2)" stroke-linecap="butt">
      <rect fill="none" x="312.25" width="136" height="136" y="468.8412" clip-path="url(#clipPath2)"/>
      <text x="346.9014" xml:space="preserve" y="541.5551" clip-path="url(#clipPath2)" font-family="sans-serif" stroke="none">signal sigma</text>
      <path fill="none" d="M467.3604 546.8037 L522.75 546.8037" clip-path="url(#clipPath2)"/>
      <path d="M530.75 546.8037 L518.75 541.8037 L521.75 546.8037 L518.75 551.8037 Z" clip-path="url(#clipPath2)" stroke="none"/>
      <path fill="none" d="M74.675 442.0494 L306.548 668.976" stroke-width="3" clip-path="url(#clipPath2)"/>
      <path d="M316.375 678.5933 L310.9005 662.7415 L300.4089 673.4619 Z" stroke-width="3" clip-path="url(#clipPath2)" stroke="none"/>
      <text x="147.0231" xml:space="preserve" y="582.0604" clip-path="url(#clipPath2)" font-family="sans-serif" stroke="none">2D array</text>
      <path fill="none" d="M206.375 243.6295 L305.7935 316.3668" clip-path="url(#clipPath2)"/>
      <path d="M312.25 321.0905 L305.5176 309.9696 L304.9865 315.7763 L299.6129 318.0403 Z" clip-path="url(#clipPath2)" stroke="none"/>
      <path fill="none" d="M206.375 254.3464 L334.2028 462.0283" clip-path="url(#clipPath2)"/>
      <path d="M338.3961 468.8412 L336.3642 456.001 L333.6786 461.1767 L327.8481 461.2426 Z" clip-path="url(#clipPath2)" stroke="none"/>
    </g>
  </g>
</svg>
